<svg width="538" height="546" xmlns="http://www.w3.org/2000/svg" xmlns:xlink="http://www.w3.org/1999/xlink" xml:space="preserve" overflow="hidden"><defs><clipPath id="clip0"><rect x="1931" y="653" width="538" height="546"/></clipPath></defs><g clip-path="url(#clip0)" transform="translate(-1931 -653)"><path d="M267.846 2.29432 350.421 0 355 57.4302 287.584 127.326 156.68 168 0 156.086 124.632 48.6955 267.846 2.29432Z" fill="#FFFFFF" fill-rule="evenodd" transform="matrix(1.83697e-16 1 1 -1.83697e-16 2239 653)"/><path d="M2118.54 769 2149.8 823.425 2160 915.627 2155.4 1008.15 2097.84 1001.28 2060.1 931.104 1975 1009 1984.2 915.067 2032.5 818.843 2118.54 769Z" fill="#FFFFFF" fill-rule="evenodd"/><path d="M2200 968C2332.04 968 2442.21 1061.59 2467.69 1186.01L2469 1199 1931 1199 1932.31 1186.01C1957.79 1061.59 2067.96 968 2200 968Z" fill="#FFFFFF" fill-rule="evenodd"/><path d="M2102.5 1142C2091.73 1142 2083 1133.27 2083 1122.5L2083 1044.5C2083 1033.73 2091.73 1025 2102.5 1025L2102.5 1025C2113.27 1025 2122 1033.73 2122 1044.5L2122 1122.5C2122 1133.27 2113.27 1142 2102.5 1142Z" fill="#333C5E" fill-rule="evenodd"/><path d="M2297.5 1142C2286.73 1142 2278 1133.27 2278 1122.5L2278 1044.5C2278 1033.73 2286.73 1025 2297.5 1025L2297.5 1025C2308.27 1025 2317 1033.73 2317 1044.5L2317 1122.5C2317 1133.27 2308.27 1142 2297.5 1142Z" fill="#333C5E" fill-rule="evenodd"/></g></svg>